<?xml version="1.0" encoding="utf-8"?>
<!-- Svg Vector Icons : http://www.onlinewebfonts.com/icon -->
<!DOCTYPE svg PUBLIC "-//W3C//DTD SVG 1.1//EN" "http://www.w3.org/Graphics/SVG/1.1/DTD/svg11.dtd">
<svg version="1.1" xmlns="http://www.w3.org/2000/svg" xmlns:xlink="http://www.w3.org/1999/xlink" x="0px" y="0px" viewBox="0 0 1000 1000" enable-background="new 0 0 1000 1000" xml:space="preserve" fill='#FAF9F6'>
<metadata> Svg Vector Icons : http://www.onlinewebfonts.com/icon </metadata>
<g><g transform="translate(0.000000,511.000000) scale(0.100000,-0.100000)"><path d="M4875.5,2308.2c-126.4-99.6-4620.4-4007.7-4693.2-4084.3c-61.3-63.2-82.3-99.6-82.3-143.6c0-128.3,86.2-210.6,220.2-210.6c57.4,0,116.8,44,492.1,369.6c235.5,204.9,1271.4,1104.8,2301.6,2001c1032.1,898,1880.3,1631.4,1888,1631.4c5.7,0,304.5-254.7,660.6-566.8c358.1-310.2,670.2-574.4,695.1-584c82.3-32.5,139.8-19.2,206.8,47.9l65.1,65.1V1391v557.2h411.7h411.7V868.3v-1078l44-59.3c36.4-51.7,419.3-388.7,1903.3-1675.4c203-174.3,222.1-185.7,300.6-185.7c139.8,0,229.8,118.7,189.6,254.7c-13.4,47.9-225.9,243.2-1026.3,940.2l-1009.1,877v1148.9v1148.9l-55.5,55.5l-55.5,55.5h-697c-630,0-698.9-3.8-735.3-34.5c-78.5-63.2-84.3-101.5-84.3-528.5c0-227.9-3.8-413.6-9.6-413.6s-241.3,201-522.7,446.1c-281.5,245.1-536.1,463.4-566.8,488.3C5055.5,2363.7,4948.3,2363.7,4875.5,2308.2z"/></g></g>
</svg>